<svg xmlns="http://www.w3.org/2000/svg" width="1440" height="1897" fill="none" viewBox="0 0 1440 1897"><g filter="url(#filter0_f_50_546)"><path fill="#3B82F6" fill-opacity=".5" fill-rule="evenodd" d="M5.13451 -8.82331C39.9338 -5.97572 81.127 -14.9599 105.571 10.0163C129.881 34.8548 108.077 78.5899 121.912 110.496C138.388 148.492 201.683 169.06 191.998 209.334C182.598 248.425 122.122 242.509 85.9686 259.97C58.2714 273.346 35.6553 295.846 5.13451 299.578C-28.1762 303.652 -67.5781 305.311 -91.4346 281.667C-115.081 258.231 -96.5334 216.499 -109.608 185.858C-124.966 149.868 -173.329 129.663 -172.998 90.5236C-172.659 50.3212 -143.038 12.0974 -107.975 -7.45796C-74.2037 -26.2927 -33.389 -11.9756 5.13451 -8.82331Z" clip-rule="evenodd"/></g><g filter="url(#filter1_f_50_546)"><path fill="#F59E0B" fill-opacity=".5" fill-rule="evenodd" d="M1337.84 260.818C1304.46 263.54 1264.96 254.951 1241.52 278.831C1218.2 302.579 1239.11 344.395 1225.84 374.9C1210.04 411.229 1149.34 430.894 1158.63 469.401C1167.65 506.776 1225.64 501.12 1260.31 517.814C1286.88 530.603 1308.57 552.116 1337.84 555.685C1369.78 559.58 1407.57 561.165 1430.45 538.559C1453.12 516.152 1435.34 476.251 1447.88 446.955C1462.6 412.545 1508.99 393.227 1508.67 355.805C1508.34 317.367 1479.94 280.82 1446.31 262.123C1413.92 244.115 1374.78 257.804 1337.84 260.818Z" clip-rule="evenodd"/></g><g filter="url(#filter2_f_50_546)"><path fill="#10B981" fill-opacity=".5" fill-rule="evenodd" d="M356.166 843.818C322.793 846.54 283.288 837.951 259.845 861.831C236.532 885.579 257.442 927.395 244.174 957.9C228.374 994.229 167.673 1013.89 176.961 1052.4C185.976 1089.78 243.973 1084.12 278.645 1100.81C305.207 1113.6 326.896 1135.12 356.166 1138.68C388.112 1142.58 425.899 1144.17 448.777 1121.56C471.455 1099.15 453.667 1059.25 466.206 1029.96C480.935 995.545 527.316 976.227 526.998 938.805C526.673 900.367 498.266 863.82 464.64 845.123C432.253 827.115 393.111 840.804 356.166 843.818Z" clip-rule="evenodd"/></g><g filter="url(#filter3_f_50_546)"><path fill="#EF4444" fill-opacity=".5" fill-rule="evenodd" d="M1028.17 1598.33C994.793 1601.05 955.288 1592.46 931.845 1616.34C908.532 1640.09 929.442 1681.9 916.174 1712.41C900.374 1748.74 839.673 1768.4 848.961 1806.91C857.976 1844.29 915.973 1838.63 950.645 1855.32C977.207 1868.11 998.896 1889.63 1028.17 1893.19C1060.11 1897.09 1097.9 1898.68 1120.78 1876.07C1143.45 1853.66 1125.67 1813.76 1138.21 1784.47C1152.93 1750.05 1199.32 1730.74 1199 1693.31C1198.67 1654.88 1170.27 1618.33 1136.64 1599.63C1104.25 1581.63 1065.11 1595.31 1028.17 1598.33Z" clip-rule="evenodd"/></g><defs><filter id="filter0_f_50_546" width="1166" height="1119" x="-573" y="-417" color-interpolation-filters="sRGB" filterUnits="userSpaceOnUse"><feFlood flood-opacity="0" result="BackgroundImageFix"/><feBlend in="SourceGraphic" in2="BackgroundImageFix" mode="normal" result="shape"/><feGaussianBlur result="effect1_foregroundBlur_50_546" stdDeviation="200"/></filter><filter id="filter1_f_50_546" width="1151" height="1105" x="757.67" y="-147" color-interpolation-filters="sRGB" filterUnits="userSpaceOnUse"><feFlood flood-opacity="0" result="BackgroundImageFix"/><feBlend in="SourceGraphic" in2="BackgroundImageFix" mode="normal" result="shape"/><feGaussianBlur result="effect1_foregroundBlur_50_546" stdDeviation="200"/></filter><filter id="filter2_f_50_546" width="1151" height="1105" x="-224" y="436" color-interpolation-filters="sRGB" filterUnits="userSpaceOnUse"><feFlood flood-opacity="0" result="BackgroundImageFix"/><feBlend in="SourceGraphic" in2="BackgroundImageFix" mode="normal" result="shape"/><feGaussianBlur result="effect1_foregroundBlur_50_546" stdDeviation="200"/></filter><filter id="filter3_f_50_546" width="1151" height="1105" x="448" y="1190.51" color-interpolation-filters="sRGB" filterUnits="userSpaceOnUse"><feFlood flood-opacity="0" result="BackgroundImageFix"/><feBlend in="SourceGraphic" in2="BackgroundImageFix" mode="normal" result="shape"/><feGaussianBlur result="effect1_foregroundBlur_50_546" stdDeviation="200"/></filter></defs></svg>