<svg fill="none" height="702" viewBox="0 0 593 702" width="593" xmlns="http://www.w3.org/2000/svg" xmlns:xlink="http://www.w3.org/1999/xlink"><filter id="a" color-interpolation-filters="sRGB" filterUnits="userSpaceOnUse" height="1119" width="1166" x="-573" y="-417"><feFlood flood-opacity="0" result="BackgroundImageFix"/><feBlend in="SourceGraphic" in2="BackgroundImageFix" mode="normal" result="shape"/><feGaussianBlur result="effect1_foregroundBlur_50_549" stdDeviation="200"/></filter><g filter="url(#a)"><path clip-rule="evenodd" d="m5.13451-8.82331c34.79929 2.84759 75.99249-6.13659 100.43649 18.83961 24.31 24.8385 2.506 68.5736 16.341 100.4797 16.476 37.996 79.771 58.564 70.086 98.838-9.4 39.091-69.876 33.175-106.0294 50.636-27.6972 13.376-50.3133 35.876-80.83409 39.608-33.31071 4.074-72.71261 5.733-96.56911-17.911-23.6464-23.436-5.0988-65.168-18.1734-95.809-15.358-35.99-63.721-56.195-63.39-95.3344.339-40.2024 29.96-78.4262 65.023-97.98156 33.7713-18.83474 74.586-4.51764 113.10951-1.36535z" fill="#3b82f6" fill-opacity=".5" fill-rule="evenodd"/></g></svg>